<?xml version="1.0" encoding="utf-8" ?>
<svg baseProfile="full" height="100%" version="1.1" width="100%" xmlns="http://www.w3.org/2000/svg" xmlns:ev="http://www.w3.org/2001/xml-events" xmlns:xlink="http://www.w3.org/1999/xlink"><defs /><text fill="#94958f" style="font-size: 12px; font-family: P22UndergroundProDemi;" x="0" y="35">w6</text><rect fill="#94958f" height="25" width="50" x="0" y="0" /><text fill="#f0edf6" style="font-size: 12px; font-family: P22UndergroundProDemi;" x="0" y="65">v0000</text><rect fill="#f0edf6" height="25" width="50" x="0" y="25" /><text fill="#d7e7a8" style="font-size: 12px; font-family: P22UndergroundProDemi;" x="0" y="95">g43</text><rect fill="#d7e7a8" height="25" width="50" x="0" y="50" /><text fill="#cb487a" style="font-size: 12px; font-family: P22UndergroundProDemi;" x="0" y="125">r39</text><rect fill="#cb487a" height="25" width="50" x="0" y="75" /><text fill="#ffdea8" style="font-size: 12px; font-family: P22UndergroundProDemi;" x="0" y="155">yr31</text><rect fill="#ffdea8" height="25" width="50" x="0" y="100" /><text fill="#6b668e" style="font-size: 12px; font-family: P22UndergroundProDemi;" x="0" y="185">v28</text><rect fill="#6b668e" height="25" width="50" x="0" y="125" /><text fill="#fad3ce" style="font-size: 12px; font-family: P22UndergroundProDemi;" x="0" y="215">rv32</text><rect fill="#fad3ce" height="25" width="50" x="0" y="150" /><text fill="#777873" style="font-size: 12px; font-family: P22UndergroundProDemi;" x="0" y="245">w7</text><rect fill="#777873" height="25" width="50" x="0" y="175" /><text fill="#8a6e59" style="font-size: 12px; font-family: P22UndergroundProDemi;" x="0" y="275">e44</text><rect fill="#8a6e59" height="25" width="50" x="0" y="200" /><text fill="#b3e3f1" style="font-size: 12px; font-family: P22UndergroundProDemi;" x="0" y="305">b02</text><rect fill="#b3e3f1" height="25" width="50" x="0" y="225" /><text fill="#637079" style="font-size: 12px; font-family: P22UndergroundProDemi;" x="50" y="35">c6</text><rect fill="#637079" height="25" width="50" x="50" y="0" /><text fill="#322e2d" style="font-size: 12px; font-family: P22UndergroundProDemi;" x="50" y="65">t10</text><rect fill="#322e2d" height="25" width="50" x="50" y="25" /><text fill="#ffeee4" style="font-size: 12px; font-family: P22UndergroundProDemi;" x="50" y="95">e01</text><rect fill="#ffeee4" height="25" width="50" x="50" y="50" /><text fill="#e8dabd" style="font-size: 12px; font-family: P22UndergroundProDemi;" x="50" y="125">e43</text><rect fill="#e8dabd" height="25" width="50" x="50" y="75" /><text fill="#fffbcc" style="font-size: 12px; font-family: P22UndergroundProDemi;" x="50" y="155">y11</text><rect fill="#fffbcc" height="25" width="50" x="50" y="100" /><text fill="#cc9159" style="font-size: 12px; font-family: P22UndergroundProDemi;" x="50" y="185">e37</text><rect fill="#cc9159" height="25" width="50" x="50" y="125" /><text fill="#f7f6be" style="font-size: 12px; font-family: P22UndergroundProDemi;" x="50" y="215">yg21</text><rect fill="#f7f6be" height="25" width="50" x="50" y="150" /><text fill="#c4e4cd" style="font-size: 12px; font-family: P22UndergroundProDemi;" x="50" y="245">g21</text><rect fill="#c4e4cd" height="25" width="50" x="50" y="175" /><text fill="#b684a1" style="font-size: 12px; font-family: P22UndergroundProDemi;" x="50" y="275">rv95</text><rect fill="#b684a1" height="25" width="50" x="50" y="200" /><text fill="#f386af" style="font-size: 12px; font-family: P22UndergroundProDemi;" x="50" y="305">rv06</text><rect fill="#f386af" height="25" width="50" x="50" y="225" /><text fill="#88534d" style="font-size: 12px; font-family: P22UndergroundProDemi;" x="100" y="35">e18</text><rect fill="#88534d" height="25" width="50" x="100" y="0" /><text fill="#8184a7" style="font-size: 12px; font-family: P22UndergroundProDemi;" x="100" y="65">bv25</text><rect fill="#8184a7" height="25" width="50" x="100" y="25" /><text fill="#feed55" style="font-size: 12px; font-family: P22UndergroundProDemi;" x="100" y="95">y18</text><rect fill="#feed55" height="25" width="50" x="100" y="50" /><text fill="#535d66" style="font-size: 12px; font-family: P22UndergroundProDemi;" x="100" y="125">c8</text><rect fill="#535d66" height="25" width="50" x="100" y="75" /><text fill="#ca6553" style="font-size: 12px; font-family: P22UndergroundProDemi;" x="100" y="155">e08</text><rect fill="#ca6553" height="25" width="50" x="100" y="100" /><text fill="#e86c74" style="font-size: 12px; font-family: P22UndergroundProDemi;" x="100" y="185">r37</text><rect fill="#e86c74" height="25" width="50" x="100" y="125" /><text fill="#00bcea" style="font-size: 12px; font-family: P22UndergroundProDemi;" x="100" y="215">b16</text><rect fill="#00bcea" height="25" width="50" x="100" y="150" /><text fill="#9dc3aa" style="font-size: 12px; font-family: P22UndergroundProDemi;" x="100" y="245">g85</text><rect fill="#9dc3aa" height="25" width="50" x="100" y="175" /><text fill="#f27185" style="font-size: 12px; font-family: P22UndergroundProDemi;" x="100" y="275">r35</text><rect fill="#f27185" height="25" width="50" x="100" y="200" /><text fill="#196db6" style="font-size: 12px; font-family: P22UndergroundProDemi;" x="100" y="305">b28</text><rect fill="#196db6" height="25" width="50" x="100" y="225" /></svg>